<svg width="31" height="38" viewBox="0 0 31 38" fill="none" xmlns="http://www.w3.org/2000/svg">
<path d="M26.5433 25.9707L30.3226 29.75V31.5957H0.264038V29.75L4.04333 25.9707V16.6543C4.04333 13.7246 4.77576 11.1758 6.2406 9.00781C7.76404 6.83984 9.84412 5.43359 12.4808 4.78906V3.4707C12.4808 2.70898 12.7445 2.06445 13.2719 1.53711C13.7992 0.951172 14.473 0.658203 15.2933 0.658203C16.1136 0.658203 16.7875 0.951172 17.3148 1.53711C17.8422 2.06445 18.1058 2.70898 18.1058 3.4707V4.78906C20.7426 5.43359 22.7933 6.83984 24.2582 9.00781C25.7816 11.1758 26.5433 13.7246 26.5433 16.6543V25.9707ZM15.2933 37.2207C14.2386 37.2207 13.3304 36.8691 12.5687 36.166C11.8656 35.4629 11.514 34.584 11.514 33.5293H19.0726C19.0726 34.5254 18.6918 35.4043 17.9301 36.166C17.1683 36.8691 16.2894 37.2207 15.2933 37.2207Z" fill="white"/>
</svg>
