<svg width="34" height="34" viewBox="0 0 34 34" fill="none" xmlns="http://www.w3.org/2000/svg">
<path d="M24.8157 28.0156C25.4928 27.3385 26.274 27 27.1594 27C28.0448 27 28.8 27.3385 29.425 28.0156C30.1021 28.6927 30.4407 29.474 30.4407 30.3594C30.4407 31.2448 30.1021 32.026 29.425 32.7031C28.8 33.3281 28.0448 33.6406 27.1594 33.6406C26.274 33.6406 25.4928 33.3281 24.8157 32.7031C24.1386 32.026 23.8 31.2448 23.8 30.3594C23.8 29.474 24.1386 28.6927 24.8157 28.0156ZM0.440674 0.359375H5.90942L7.47192 3.64062H32.1594C32.6282 3.64062 33.0188 3.82292 33.3313 4.1875C33.6438 4.5 33.8 4.89062 33.8 5.35938C33.8 5.41146 33.7219 5.67188 33.5657 6.14062L27.6282 16.9219C27.0032 18.0677 26.0396 18.6406 24.7375 18.6406H12.3157L10.8313 21.375L10.7532 21.6094C10.7532 21.8698 10.8834 22 11.1438 22H30.4407V25.3594H10.4407C9.55526 25.3594 8.77401 25.0208 8.09692 24.3438C7.47192 23.6667 7.15942 22.8854 7.15942 22C7.15942 21.4792 7.28963 20.9583 7.55005 20.4375L9.81567 16.2969L3.80005 3.64062H0.440674V0.359375ZM8.09692 28.0156C8.77401 27.3385 9.55526 27 10.4407 27C11.3261 27 12.1073 27.3385 12.7844 28.0156C13.4615 28.6927 13.8 29.474 13.8 30.3594C13.8 31.2448 13.4615 32.026 12.7844 32.7031C12.1073 33.3281 11.3261 33.6406 10.4407 33.6406C9.55526 33.6406 8.77401 33.3281 8.09692 32.7031C7.47192 32.026 7.15942 31.2448 7.15942 30.3594C7.15942 29.474 7.47192 28.6927 8.09692 28.0156Z" fill="white"/>
</svg>
